<?xml version="1.0" encoding="UTF-8"?>
<svg width="800px" height="800px" fill="none" version="1.1" viewBox="0 0 24 24" xml:space="preserve" xmlns="http://www.w3.org/2000/svg"><ellipse cx="12.083" cy="12.024" rx="10.729" ry="10.799" fill="#fff" stroke-width=".029411"/><path d="m2.4945 11.97c0-5.2661 4.269-9.5351 9.5351-9.5351 1.9409 0 3.7463 0.57987 5.2524 1.5758l-12.315 14.367c-1.5369-1.6928-2.4734-3.9407-2.4734-6.4072zm4.2827 7.9593c1.5062 0.99594 3.3115 1.5758 5.2524 1.5758 5.2661 0 9.5351-4.269 9.5351-9.5351 0-2.4665-0.93658-4.7143-2.4734-6.4071zm5.2524-19.878c-6.5825 0-11.919 5.3363-11.919 11.919 0 6.5825 5.3363 11.919 11.919 11.919 6.5825 0 11.919-5.3363 11.919-11.919 0-6.5825-5.3363-11.919-11.919-11.919z" clip-rule="evenodd" fill="#b60404" fill-rule="evenodd" stroke-width="1.1919"/><path d="m4.4317 10.922 0.64186 1.1675c0.70898 1.2896 2.3292 1.7603 3.6188 1.0514l1.1675-0.64186 0.71368 1.2982 3.7534-4.2352-3.0062-5.4681c-0.28583-0.51992-1.0573-0.43502-1.2232 0.13514l-0.44754 1.5436-1.9567 1.0757c-0.39806 0.21883-0.70763 0.76538-0.6894 1.2195l0.025786 0.66573-2.3351 1.2838c-0.3224 0.17724-0.44008 0.58229-0.26283 0.90471zm4.0864-2.2465c-0.28594-0.52013 0.19972-1.1262 0.76962-0.96062 0.5699 0.16558 0.6552 0.93752 0.13509 1.2235-0.3224 0.17724-0.72745 0.059569-0.9047-0.26283z" fill="#000" stroke-width=".03794"/><path id="fork" d="m12.994 10.294c-0.15256 0.07774-0.2133 0.26465-0.13556 0.41721l0.95268 1.8697c0.19814 0.38888 0.13356 0.83398-0.12508 1.121l-1.3804-2.7091c-0.07773-0.15256-0.26465-0.2133-0.41722-0.13556-0.15256 0.07773-0.2133 0.26464-0.13556 0.41722l1.3803 2.7091c-0.38425 0.04052-0.78232-0.16886-0.98047-0.55773l-0.9527-1.8697c-0.07773-0.15256-0.26464-0.2133-0.41721-0.13556-0.15257 0.07773-0.2133 0.26464-0.13556 0.41722l0.98578 1.9347c0.28841 0.56605 0.8766 0.87523 1.4726 0.84034l2.4548 4.8177c0.14576 0.28606 0.48268 0.40753 0.77564 0.29376l0.05877-0.02267 0.05288-0.03423c0.26424-0.17014 0.364-0.5141 0.21826-0.80017l-2.4546-4.8175c0.37841-0.46193 0.474-1.1195 0.18559-1.6856l-0.98579-1.9347c-0.07772-0.15256-0.26464-0.2133-0.41721-0.13556" fill="#000" fill-rule="evenodd" stroke-width="1.1919"/><path d="m23.868 10.761v1.5891c0 1.7554-1.423 3.1784-3.1784 3.1784h-1.5891v1.767l-6.3567-2.2701v-7.4428c0-0.70768 0.85518-1.0623 1.3562-0.56167l1.3548 1.3562h2.6634c0.5418 0 1.1795 0.39332 1.4213 0.87851l0.35557 0.71066h3.1784c0.43884 0 0.79459 0.35575 0.79459 0.79459zm-5.5622 0c0-0.70795-0.85588-1.0624-1.3564-0.56183-0.50053 0.50054-0.14612 1.3564 0.56183 1.3564 0.43884 0 0.79459-0.35575 0.79459-0.79459z" stroke-width=".049662"/></svg>
