<?xml version="1.0" encoding="UTF-8"?>
<svg width="800px" height="800px" fill="none" version="1.1" viewBox="0 0 24 24" xml:space="preserve" xmlns="http://www.w3.org/2000/svg"><ellipse cx="12.128" cy="11.982" rx="11.293" ry="11.522" fill="#fff" stroke-width=".029328"/><path d="m2.4974 11.956c0-5.2726 4.2743-9.5469 9.5469-9.5469 1.9433 0 3.751 0.58059 5.2589 1.5778l-12.329 14.384c-1.5388-1.6949-2.4765-3.9456-2.4765-6.4151zm4.288 7.9691c1.508 0.99717 3.3156 1.5777 5.2589 1.5777 5.2726 0 9.5469-4.2742 9.5469-9.5469 0-2.4696-0.93774-4.7201-2.4765-6.4151zm5.2589-19.903c-6.5907 0-11.934 5.3428-11.934 11.934 0 6.5907 5.3428 11.934 11.934 11.934 6.5907 0 11.934-5.3429 11.934-11.934 0-6.5907-5.3429-11.934-11.934-11.934z" clip-rule="evenodd" fill="#b60404" fill-rule="evenodd" stroke-width="1.1934"/><path d="m4.4371 10.905 0.64266 1.169c0.70986 1.2912 2.3321 1.7625 3.6233 1.0527l1.169-0.64266 0.71455 1.2998 3.758-4.2405-3.0098-5.4749c-0.28618-0.52056-1.0586-0.43556-1.2248 0.13531l-0.4481 1.5455-1.9592 1.0771c-0.39855 0.21911-0.70851 0.76633-0.69025 1.221l0.025818 0.66655-2.338 1.2853c-0.3228 0.17747-0.44062 0.58302-0.26316 0.90583zm4.0915-2.2493c-0.28629-0.52077 0.19997-1.1276 0.77057-0.96181 0.57061 0.16578 0.65602 0.93868 0.13525 1.225-0.32281 0.17746-0.72836 0.059643-0.90582-0.26316z" fill="#000" stroke-width=".041687"/><path id="fork" d="m13.01 10.277c-0.15275 0.07783-0.21356 0.26498-0.13573 0.41773l0.95387 1.8721c0.19838 0.38936 0.13373 0.83502-0.12524 1.1224l-1.3821-2.7125c-0.07783-0.15275-0.26498-0.21356-0.41773-0.13573-0.15275 0.07783-0.21356 0.26498-0.13573 0.41773l1.3821 2.7125c-0.38472 0.04057-0.78329-0.16907-0.98168-0.55842l-0.95387-1.8721c-0.07783-0.15275-0.26498-0.21356-0.41773-0.13573-0.15276 0.07783-0.21356 0.26498-0.13573 0.41773l0.987 1.9371c0.28877 0.56674 0.87769 0.87632 1.4744 0.84137l2.4578 4.8237c0.14594 0.28641 0.48328 0.40803 0.7766 0.29413l0.05885-0.0227 0.05295-0.03427c0.26456-0.17035 0.36445-0.51475 0.21852-0.80116l-2.4576-4.8234c0.37888-0.4625 0.47459-1.1209 0.18581-1.6877l-0.98702-1.9371c-0.07782-0.15275-0.26497-0.21356-0.41772-0.13573" fill="#000" fill-rule="evenodd"/><path d="m23.898 10.744v1.5911c0 1.7575-1.4248 3.1823-3.1823 3.1823h-1.5911v1.7692l-6.3646-2.2729v-7.452c0-0.70856 0.85623-1.0636 1.3579-0.56237l1.3564 1.3579h2.6667c0.54248 0 1.1809 0.39381 1.4231 0.8796l0.35602 0.71154h3.1823c0.43938 0 0.79557 0.35619 0.79557 0.79557zm-5.569 0c0-0.70883-0.85694-1.0637-1.3581-0.56253-0.50116 0.50116-0.1463 1.3581 0.56253 1.3581 0.43938 0 0.79557-0.35619 0.79557-0.79557z" stroke-width=".049723"/></svg>
