<?xml version="1.0" encoding="UTF-8"?>
<svg width="512" height="512" fill="none" version="1.1" viewBox="0 0 15.36 15.36" xml:space="preserve" xmlns="http://www.w3.org/2000/svg"><ellipse cx="7.7686" cy="7.7094" rx="6.8626" ry="6.9074" fill="#fff" stroke-width=".018812"/><path d="m1.6354 7.6749c0-3.3684 2.7306-6.099 6.099-6.099 1.2415 0 2.3963 0.3709 3.3596 1.0079l-7.8771 9.1896c-0.98305-1.0828-1.5821-2.5206-1.5821-4.0983zm2.7394 5.091c0.96342 0.63704 2.1181 1.0079 3.3596 1.0079 3.3684 0 6.099-2.7306 6.099-6.099 0-1.5777-0.59907-3.0154-1.5821-4.0982zm3.3596-12.715c-4.2104 0-7.6238 3.4133-7.6238 7.6238 0 4.2104 3.4133 7.6238 7.6238 7.6238 4.2104 0 7.6238-3.4133 7.6238-7.6238 0-4.2104-3.4133-7.6238-7.6238-7.6238z" clip-rule="evenodd" fill="#b60404" fill-rule="evenodd" stroke-width=".76238"/><path d="m2.8745 7.0046 0.41056 0.74677c0.45349 0.82487 1.4898 1.1259 2.3147 0.67251l0.74677-0.41056 0.45649 0.83037 2.4008-2.709-1.9229-3.4976c-0.18283-0.33256-0.67628-0.27825-0.7824 0.08644l-0.28626 0.98734-1.2516 0.68805c-0.25461 0.13997-0.45262 0.48956-0.44096 0.78003l0.016494 0.42582-1.4936 0.82116c-0.20622 0.11337-0.28149 0.37245-0.16812 0.57868zm2.6138-1.4369c-0.1829-0.33269 0.12775-0.72036 0.49228-0.61445 0.36453 0.10591 0.41909 0.59967 0.086408 0.78259-0.20622 0.11337-0.4653 0.038102-0.57868-0.16812z" fill="#000" stroke-width=".024268"/><path id="fork" d="m8.3513 6.6029c-0.097582 0.049725-0.13643 0.16928-0.086709 0.26686l0.60937 1.1959c0.12674 0.24874 0.08543 0.53344-0.080005 0.71703l-0.88295-1.7328c-0.049719-0.097583-0.16928-0.13643-0.26687-0.086709-0.097582 0.049719-0.13643 0.16927-0.086709 0.26687l0.88289 1.7328c-0.24578 0.025918-0.5004-0.10801-0.62714-0.35674l-0.60938-1.1959c-0.049719-0.097583-0.16927-0.13643-0.26686-0.086709-0.097589 0.049719-0.13643 0.16927-0.086709 0.26687l0.63054 1.2375c0.18448 0.36206 0.5607 0.55983 0.94192 0.53751l1.5702 3.0816c0.093233 0.18297 0.30874 0.26067 0.49613 0.1879l0.03759-0.0145 0.03382-0.02189c0.16902-0.10883 0.23283-0.32884 0.13961-0.51182l-1.57-3.0814c0.24204-0.29547 0.30319-0.71607 0.11871-1.0782l-0.63054-1.2375c-0.049712-0.097583-0.16927-0.13643-0.26686-0.086709" fill="#000" fill-rule="evenodd" stroke-width=".76238"/><path d="m15.307 6.9016v1.0164c0 1.1228-0.9102 2.033-2.033 2.033h-1.0164v1.1302l-4.066-1.452v-4.7607c0-0.45266 0.547-0.67948 0.86747-0.35926l0.86658 0.86747h1.7036c0.34655 0 0.75445 0.25158 0.90911 0.56192l0.22744 0.45456h2.033c0.2807 0 0.50825 0.22755 0.50825 0.50825zm-3.5578 0c0-0.45283-0.54745-0.67955-0.8676-0.35937-0.32016 0.32016-0.09346 0.8676 0.35937 0.8676 0.2807 0 0.50825-0.22755 0.50825-0.50825z" stroke-width=".031766"/></svg>
