<?xml version="1.0" encoding="UTF-8"?>
<!-- Uploaded to: SVG Repo, www.svgrepo.com, Generator: SVG Repo Mixer Tools -->
<svg width="800px" height="800px" fill="none" version="1.1" viewBox="0 0 24 24" xml:space="preserve" xmlns="http://www.w3.org/2000/svg"><path d="m4 12c0-4.4183 3.5817-8 8-8 1.6284 0 3.1432 0.48652 4.4068 1.3221l-10.332 12.054c-1.2895-1.4203-2.0752-3.3063-2.0752-5.3757zm3.5932 6.6779c1.2637 0.8356 2.7784 1.3221 4.4068 1.3221 4.4183 0 8-3.5817 8-8 0-2.0694-0.7858-3.9553-2.0752-5.3756zm4.4068-16.678c-5.5228 0-10 4.4772-10 10 0 5.5228 4.4772 10 10 10 5.5228 0 10-4.4772 10-10 0-5.5228-4.4772-10-10-10z" clip-rule="evenodd" fill="#b60404" fill-rule="evenodd"/><path d="m5.6254 11.12 0.53853 0.97958c0.59484 1.082 1.9542 1.4769 3.0362 0.8821l0.97958-0.53853 0.59878 1.0892 3.1491-3.5534-2.5222-4.5878c-0.23981-0.43622-0.88711-0.36499-1.0263 0.11338l-0.37549 1.2951-1.6417 0.90254c-0.33398 0.1836-0.59371 0.64216-0.57841 1.0232l0.021635 0.55855-1.9592 1.0771c-0.2705 0.14871-0.36923 0.48855-0.22052 0.75906zm3.4285-1.8848c-0.23991-0.43639 0.16757-0.94489 0.64572-0.80597 0.47815 0.13892 0.54972 0.78659 0.11334 1.0265-0.2705 0.14871-0.61034 0.049979-0.75905-0.22052z" fill="#000" stroke-width=".034933"/><path id="fork" d="m12.809 10.593c-0.128 0.06522-0.17896 0.22204-0.11374 0.35004l0.79931 1.5687c0.16624 0.32627 0.11206 0.69972-0.10494 0.94056l-1.1582-2.273c-0.06522-0.128-0.22204-0.17896-0.35005-0.11374-0.128 0.06522-0.17896 0.22204-0.11374 0.35005l1.1581 2.273c-0.32239 0.034-0.65637-0.14168-0.82262-0.46794l-0.79932-1.5687c-0.06522-0.128-0.22204-0.17896-0.35004-0.11374-0.12801 0.06522-0.17896 0.22204-0.11374 0.35005l0.82708 1.6232c0.24198 0.47492 0.73548 0.73433 1.2355 0.70505l2.0596 4.0421c0.12229 0.24001 0.40497 0.34192 0.65077 0.24647l0.04931-0.01902 0.04437-0.02872c0.2217-0.14275 0.3054-0.43134 0.18312-0.67135l-2.0594-4.0419c0.31749-0.38756 0.39769-0.9393 0.15571-1.4142l-0.82709-1.6232c-0.06521-0.128-0.22204-0.17896-0.35004-0.11374" fill="#000" fill-rule="evenodd"/><path d="m21.933 10.985v1.3333c0 1.4728-1.1939 2.6667-2.6667 2.6667h-1.3333v1.4825l-5.3333-1.9046v-6.2446c0-0.59375 0.7175-0.89125 1.1379-0.47125l1.1367 1.1379h2.2346c0.45458 0 0.98958 0.33 1.1925 0.73708l0.29833 0.59625h2.6667c0.36819 0 0.66667 0.29848 0.66667 0.66667zm-4.6667 0c0-0.59398-0.71809-0.89134-1.138-0.47138-0.41995 0.41996-0.1226 1.138 0.47138 1.138 0.36819 0 0.66667-0.29848 0.66667-0.66667z" stroke-width=".041667"/></svg>
